<svg xmlns="http://www.w3.org/2000/svg" viewBox="0 0 32 32"><defs><style>.cls-1{fill:#231f20;}</style></defs><g id="paint_pallete" data-name="paint pallete"><path class="cls-1" d="M29.07,17h0a1,1,0,0,0-1,1,3.37,3.37,0,0,1-.76,2.34c-1.1,1.15-3.28,1-5.2.91C20,21.09,18,21,17.13,22.51c-.7,1.25,0,2.75.69,4.08a12.28,12.28,0,0,1,.54,1.21A10.41,10.41,0,0,1,16,28,12,12,0,1,1,27.86,14.15a1,1,0,1,0,2-.3A14,14,0,1,0,16,30a10.69,10.69,0,0,0,3.33-.4,1.57,1.57,0,0,0,1-.89c.37-.88-.12-1.86-.68-3-.3-.61-.92-1.89-.74-2.22s1.89-.34,3.1-.27c2.24.13,5,.29,6.76-1.53A5.35,5.35,0,0,0,30,18,1,1,0,0,0,29.07,17Z"/><path class="cls-1" d="M23,20a4,4,0,1,0-4-4A4,4,0,0,0,23,20Zm0-6a2,2,0,1,1-2,2A2,2,0,0,1,23,14Z"/><path class="cls-1" d="M6.5,14.06a1,1,0,0,0-1.27.61A4,4,0,1,0,9,12a1,1,0,0,0,0,2,2,2,0,1,1-2,2,2.19,2.19,0,0,1,.11-.67A1,1,0,0,0,6.5,14.06Z"/><path class="cls-1" d="M16,13a4,4,0,0,0,4-4,1,1,0,0,0-2,0,2,2,0,1,1-2-2,2.19,2.19,0,0,1,.67.11,1,1,0,1,0,.66-1.88A4,4,0,0,0,16,5a4,4,0,0,0,0,8Z"/></g></svg>