<svg xmlns="http://www.w3.org/2000/svg" viewBox="0 0 32 32"><defs><style>.cls-1{fill:#231f20;}</style></defs><g id="discussion"><path class="cls-1" d="M29,5H26V4.22A2.23,2.23,0,0,0,23.78,2H22.22A2.23,2.23,0,0,0,20,4.22V19H13a1,1,0,0,0-.71.29L8,23.59V20a1,1,0,0,0-1-1H4V7H18a1,1,0,0,0,0-2H3A1,1,0,0,0,2,6V20a1,1,0,0,0,1,1H6v5a1,1,0,0,0,.62.92A.84.84,0,0,0,7,27a1,1,0,0,0,.71-.29L13.41,21H20v3h0v0a.58.58,0,0,0,0,.18,1.25,1.25,0,0,0,0,.19v0h0l2,5a1,1,0,0,0,1.86,0l2-5h0v0a1.08,1.08,0,0,0,0-.19A1.16,1.16,0,0,0,26,24v0h0V21h3a1,1,0,0,0,1-1V6A1,1,0,0,0,29,5ZM22.22,4h1.56a.22.22,0,0,1,.22.22V6H22V4.22A.22.22,0,0,1,22.22,4Zm.26,21h1L23,26.31ZM28,19H25a1,1,0,0,0-1,1v3H22V8h2v9a1,1,0,0,0,2,0V7h2Z"/><path class="cls-1" d="M17,9H7a1,1,0,0,0,0,2H17a1,1,0,0,0,0-2Z"/><path class="cls-1" d="M17,12H7a1,1,0,0,0,0,2H17a1,1,0,0,0,0-2Z"/><path class="cls-1" d="M17,15H7a1,1,0,0,0,0,2H17a1,1,0,0,0,0-2Z"/></g></svg>