<svg xmlns="http://www.w3.org/2000/svg" viewBox="0 0 32 32"><defs><style>.cls-1{fill:#231f20;}</style></defs><g id="brush"><path class="cls-1" d="M28.75,2.8l-.1-.08a3.64,3.64,0,0,0-5.13.34l-8.27,9.45a1,1,0,1,0,1.5,1.32L25,4.38a1.63,1.63,0,0,1,2.31-.15l.09.08A1.64,1.64,0,0,1,28,5.43a1.62,1.62,0,0,1-.4,1.19L17.41,18.25l-3.32-2.9a1,1,0,0,0-1.41.09l-2.64,3a1.05,1.05,0,0,0-.07.11,5.3,5.3,0,0,0-3.75,1.8A6.5,6.5,0,0,0,5,23.94a6.39,6.39,0,0,0,0,1.13,2.29,2.29,0,0,1,0,.74,3.2,3.2,0,0,1-1.15,1.77,1,1,0,0,0-.34.89,1,1,0,0,0,.57.77,9.41,9.41,0,0,0,4,.89,7.39,7.39,0,0,0,5.71-2.48,7.05,7.05,0,0,0,1.59-4.11,1.21,1.21,0,0,0,.26-.2l2.64-3L29.09,7.94A3.65,3.65,0,0,0,28.75,2.8ZM12.24,26.35a5.83,5.83,0,0,1-6,1.55A4.67,4.67,0,0,0,7,26.19a4.18,4.18,0,0,0,0-1.3,5.42,5.42,0,0,1,0-.83,4.46,4.46,0,0,1,.78-2.43,3.93,3.93,0,0,1,3.11-1.08l2.49,2.17A5.45,5.45,0,0,1,12.24,26.35Zm2.52-5.07L12.2,19l1.33-1.52,2.56,2.25Z"/></g></svg>