<svg xmlns="http://www.w3.org/2000/svg" viewBox="0 0 32 32"><defs><style>.cls-1{fill:#231f20;}</style></defs><g id="idea"><path class="cls-1" d="M26,10.89A10.32,10.32,0,0,0,16,2,10.3,10.3,0,0,0,6,10.89a10,10,0,0,0,3.6,8.7A3.61,3.61,0,0,1,11,22.35a1.6,1.6,0,0,0,.05.39A1.19,1.19,0,0,0,11,23v.86A3.15,3.15,0,0,0,14.14,27h3.72A3.15,3.15,0,0,0,21,23.86V23a1.19,1.19,0,0,0-.05-.26,1.6,1.6,0,0,0,.05-.39,3.61,3.61,0,0,1,1.39-2.76,1,1,0,0,0-1.29-1.53A5.73,5.73,0,0,0,19,22H13a5.73,5.73,0,0,0-2.09-3.94A8,8,0,0,1,8,11.11,8.28,8.28,0,0,1,16,4,8.3,8.3,0,0,1,24,11.11a7.71,7.71,0,0,1-.89,4.46,1,1,0,1,0,1.76.94A9.59,9.59,0,0,0,26,10.89ZM17,24h2a1.12,1.12,0,0,1-1.11,1H14.14A1.14,1.14,0,0,1,13,24Z"/><path class="cls-1" d="M19,28H13a1,1,0,0,0,0,2h6a1,1,0,0,0,0-2Z"/><path class="cls-1" d="M14.76,6A6.21,6.21,0,0,0,10,12a1,1,0,0,0,1,1h0a1,1,0,0,0,1-1,4.22,4.22,0,0,1,3.24-4A1,1,0,0,0,16,6.76,1,1,0,0,0,14.76,6Z"/></g></svg>