<svg xmlns="http://www.w3.org/2000/svg" viewBox="0 0 32 32"><defs><style>.cls-1{fill:#231f20;}</style></defs><g id="graphic_designer" data-name="graphic designer"><path class="cls-1" d="M26.61,6H23a1,1,0,0,0,0,2h3.61a.41.41,0,0,1,.39.43V22.57a.41.41,0,0,1-.39.43H21V21a1,1,0,0,0-1-1H13.76L11.1,10.64,15,5.83v5.45a2,2,0,1,0,2,0V5.83l3.9,4.81-2,7.09a1,1,0,1,0,1.92.54L23,10.68a1,1,0,0,0-.18-.9l-6-7.41a1,1,0,0,0-1.56,0l-6,7.41a1,1,0,0,0-.18.9l2.65,9.38A1,1,0,0,0,11,21v2H5.39A.41.41,0,0,1,5,22.57V8.34A.37.37,0,0,1,5.39,8H9A1,1,0,0,0,9,6H5.39A2.37,2.37,0,0,0,3,8.34V22.57A2.41,2.41,0,0,0,5.39,25H15v3H10a1,1,0,0,0,0,2H22a1,1,0,0,0,0-2H17V25h9.61A2.41,2.41,0,0,0,29,22.57V8.43A2.41,2.41,0,0,0,26.61,6ZM13,23V22h6v1Z"/></g></svg>