<?xml version="1.0" encoding="UTF-8"?>
<svg width="136px" height="28px" viewBox="0 0 136 28" version="1.1" xmlns="http://www.w3.org/2000/svg" xmlns:xlink="http://www.w3.org/1999/xlink">
    <title>Group 16</title>
    <defs>
        <polygon id="path-1" points="0 0 60 0 60 28 0 28"></polygon>
    </defs>
    <g id="Page-1" stroke="none" stroke-width="1" fill="none" fill-rule="evenodd">
        <g id="homepage" transform="translate(-120.000000, -53.000000)">
            <g id="Group-16" transform="translate(120.000000, 53.000000)">
                <g id="Group-3">
                    <mask id="mask-2" fill="white">
                        <use xlink:href="#path-1"></use>
                    </mask>
                    <g id="Clip-2"></g>
                    <path d="M49.58106,16.6743802 C48.5102208,15.7452396 47.4081617,14.8599812 46.2873708,14.0038285 C47.4090537,13.147228 48.5088828,12.2557008 49.58106,11.3261124 C53.4933472,7.93239822 56.9792611,4.12583219 60,0 L47.3194083,0 C37.6952353,10.1368124 24.5169107,16.7093069 9.84271166,17.9156225 L9.84271166,0 L0,0 L0,28.0000448 L4.92157883,28.0000448 C16.3712183,28.0000448 27.5554895,25.1109771 37.4829406,19.710767 C41.057608,22.1023526 44.3579871,24.8808189 47.3194083,28.0000448 L60,28.0000448 C56.9792611,23.8742126 53.4933472,20.0671988 49.58106,16.6743802" id="Fill-1" fill="#FFAE00" mask="url(#mask-2)"></path>
                </g>
                <polygon id="Fill-4" fill="#FFFFFF" points="67 9 69.5906115 9 69.5906115 12.6514537 72.8087795 9 75.8798782 9 72.3410809 12.870022 76 18 72.8891652 18 70.5387973 14.6568287 69.5906115 15.6731493 69.5906115 18 67 18"></polygon>
                <path d="M84.9771973,14.4765902 L83.9812161,11.9365387 L82.97213,14.4765902 L84.9771973,14.4765902 Z M82.8061331,9 L85.1943037,9 L89,18 L86.3436135,18 L85.6927311,16.4044442 L82.243928,16.4044442 L81.6057138,18 L79,18 L82.8061331,9 Z" id="Fill-6" fill="#FFFFFF"></path>
                <polygon id="Fill-8" fill="#FFFFFF" points="92 9 94.4642414 9 98.3857897 13.7570486 98.3857897 9 101 9 101 18 98.6852619 18 94.6142103 13.0626435 94.6142103 18 92 18"></polygon>
                <polygon id="Fill-10" fill="#FFFFFF" points="104 9 106.901043 9 109.026523 14.6551841 111.15246 9 114 9 110.203128 18 107.796872 18"></polygon>
                <path d="M121.97676,14.4765902 L120.980779,11.9365387 L119.971693,14.4765902 L121.97676,14.4765902 Z M119.805696,9 L122.193867,9 L126,18 L123.343613,18 L122.692294,16.4044442 L119.243928,16.4044442 L118.605277,18 L116,18 L119.805696,9 Z" id="Fill-12" fill="#FFFFFF"></path>
                <path d="M128,16.5581121 L129.41432,14.9546442 C130.31764,15.6379571 131.326205,15.9989606 132.386721,15.9989606 C133.06701,15.9989606 133.433802,15.7748748 133.433802,15.4019654 L133.433802,15.3773032 C133.433802,15.0162997 133.132844,14.8173013 131.889156,14.5443164 C129.93786,14.1216574 128.432178,13.5994992 128.432178,11.8093641 L128.432178,11.7842767 C128.432178,10.1684777 129.781112,9 131.980518,9 C133.538599,9 134.756312,9.39757158 135.751442,10.1557214 L134.481778,11.8586885 C133.643845,11.299537 132.72709,11.0014646 131.915132,11.0014646 C131.299782,11.0014646 130.998377,11.2497874 130.998377,11.5606161 L130.998377,11.5857035 C130.998377,11.9832751 131.312769,12.1571861 132.582881,12.4305962 C134.690478,12.8655863 136,13.5123311 136,15.1408863 L136,15.1659737 C136,16.9433525 134.520741,18 132.294911,18 C130.671444,18 129.126351,17.5152603 128,16.5581121" id="Fill-14" fill="#FFFFFF"></path>
            </g>
        </g>
    </g>
</svg>