<svg xmlns="http://www.w3.org/2000/svg" viewBox="0 0 32 32"><defs><style>.cls-1{fill:#231f20;}</style></defs><g id="picture"><path class="cls-1" d="M27.88,4H4.13A2.13,2.13,0,0,0,2,6.13V20a1,1,0,0,0,2,0V6.13A.13.13,0,0,1,4.13,6H27.88a.13.13,0,0,1,.12.13V17.92l-3.37-2.7a1,1,0,0,0-1.25,0l-4.31,3.44-5.36-5.37A1,1,0,0,0,13,13a1,1,0,0,0-.72.33l-10,11a.57.57,0,0,0-.08.13,1.08,1.08,0,0,0-.11.18,1.43,1.43,0,0,0,0,.22A.7.7,0,0,0,2,25v0a1.42,1.42,0,0,0,0,.22.75.75,0,0,0,0,.16,1.1,1.1,0,0,0,.09.14,1.18,1.18,0,0,0,.13.18l0,0a1.12,1.12,0,0,0,.16.1l.14.09A1.16,1.16,0,0,0,3,26H22a1,1,0,0,0,0-2H5.26L13,15.45l7.26,7.26a1,1,0,0,0,1.42-1.42L20.5,20.08l3.5-2.8,4,3.2v3.4a.13.13,0,0,1-.12.12H26a1,1,0,0,0,0,2h1.88A2.12,2.12,0,0,0,30,23.88V6.13A2.12,2.12,0,0,0,27.88,4Z"/><path class="cls-1" d="M24,11a3,3,0,1,0-3,3A3,3,0,0,0,24,11Zm-4,0a1,1,0,1,1,1,1A1,1,0,0,1,20,11Z"/></g></svg>