<svg xmlns="http://www.w3.org/2000/svg" viewBox="0 0 32 32"><defs><style>.cls-1{fill:#231f20;}</style></defs><g id="browser"><path class="cls-1" d="M26.69,2H12a1,1,0,0,0,0,2H26.69A1.31,1.31,0,0,1,28,5.31V8H4V5.31A1.31,1.31,0,0,1,5.31,4H8A1,1,0,0,0,8,2H5.31A3.31,3.31,0,0,0,2,5.31V26.69A3.31,3.31,0,0,0,5.31,30H26.69A3.31,3.31,0,0,0,30,26.69V25a1,1,0,0,0-2,0v1.69A1.31,1.31,0,0,1,26.69,28H5.31A1.31,1.31,0,0,1,4,26.69V10H28V21a1,1,0,0,0,2,0V5.31A3.31,3.31,0,0,0,26.69,2Z"/><path class="cls-1" d="M10,15a3,3,0,0,0,0,6H22a3,3,0,0,0,0-6ZM9,18a1,1,0,0,1,1-1h1v2H10A1,1,0,0,1,9,18Zm14,0a1,1,0,0,1-1,1H13V17h9A1,1,0,0,1,23,18Z"/><path class="cls-1" d="M26,6a1,1,0,0,0-1-1h0a1,1,0,1,0,1,1Z"/><path class="cls-1" d="M23,6a1,1,0,0,0-1-1h0a1,1,0,1,0,1,1Z"/><path class="cls-1" d="M20,6a1,1,0,0,0-1-1h0a1,1,0,1,0,1,1Z"/></g></svg>