<svg xmlns="http://www.w3.org/2000/svg" viewBox="0 0 32 32"><defs><style>.cls-1{fill:#231f20;}</style></defs><g id="origami"><path class="cls-1" d="M29.63,14.22l-5-4a1,1,0,0,0-1.34.07l-3,3L12.83,2.44a1,1,0,0,0-1.18-.38,1,1,0,0,0-.64,1l.53,4.77L7.83,2.44a1,1,0,0,0-1.18-.38,1,1,0,0,0-.64,1l1.66,15A1,1,0,0,0,8.78,19a1,1,0,0,0,.88-1.1l-1.22-11L19.57,23.2,9.29,20a1,1,0,0,0-1,.31,1,1,0,0,0-.13,1.1L9,23.17,3.35,21.06a1,1,0,0,0-1.27,1.33l3,7A1,1,0,0,0,6,30H21a1,1,0,0,0,1-.76l1-4v0s0,0,0,0l1.4-7a1,1,0,0,0-2-.4l-.93,4.67-3.11-4.55a1.15,1.15,0,0,0,.33-.21L20.41,16H29a1,1,0,0,0,.63-1.78ZM6.66,28,4.84,23.76l5.44,2,1.1,2.2Zm13.56,0h-6.6l-1.73-3.45-1-1.91,9.86,3ZM17.29,16.29v0l-3.43-5a1,1,0,0,0,0-.38l-.44-4h0l5.23,7.68a1,1,0,0,0,.17.19ZM24,14H22.41l1.66-1.66L26.15,14Z"/></g></svg>