<svg xmlns="http://www.w3.org/2000/svg" viewBox="0 0 32 32"><defs><style>.cls-1{fill:#231f20;}</style></defs><g id="cube"><path class="cls-1" d="M24.79,20.43,24,20.07a1,1,0,0,0-1.32.49,1,1,0,0,0,.49,1.33l.79.36a1,1,0,0,0,1.33-.49A1,1,0,0,0,24.79,20.43Z"/><path class="cls-1" d="M20.83,18.61,20,18.25a1,1,0,1,0-.83,1.82l.79.36a1,1,0,0,0,.42.09,1,1,0,0,0,.91-.58A1,1,0,0,0,20.83,18.61Z"/><path class="cls-1" d="M7.63,22.34A1,1,0,0,0,8,22.25l.79-.36A1,1,0,1,0,8,20.07l-.79.36a1,1,0,0,0-.5,1.33A1,1,0,0,0,7.63,22.34Z"/><path class="cls-1" d="M11.59,20.52a1,1,0,0,0,.41-.09l.79-.36A1,1,0,1,0,12,18.25l-.79.36a1,1,0,0,0-.49,1.33A1,1,0,0,0,11.59,20.52Z"/><path class="cls-1" d="M29,23.22A1.55,1.55,0,0,0,29,23h0V9a1.3,1.3,0,0,0,0-.21,1.35,1.35,0,0,0,0-.29,1,1,0,0,0-.58-.91l-12-5.5a1,1,0,0,0-.84,0l-12,5.5A1,1,0,0,0,3,8.5a1.35,1.35,0,0,0,0,.29A1.3,1.3,0,0,0,3,9V23H3a1.55,1.55,0,0,0,0,.21,0,0,0,0,1,0,0,1,1,0,0,0,.53,1.16l12,5.5a1,1,0,0,0,.84,0l12-5.5A1,1,0,0,0,29,23.25,0,0,0,0,1,29,23.22Zm-23.6-.85A1,1,0,0,0,5,22V10.06l10,4.58v2.25a1,1,0,0,0,0,1.64v8.91L5.41,23A1,1,0,0,0,5.36,22.37ZM17,18.54a1,1,0,0,0,.36-.41A1,1,0,0,0,17,16.89V14.64l10-4.58V22a1,1,0,0,0-.36.4,1,1,0,0,0-.05.67L17,27.44Zm-2-14a1,1,0,0,0,2,0l8.61,4-9.08,4.16a.92.92,0,0,0-1,0L6.4,8.5Z"/><path class="cls-1" d="M16,10.5a1,1,0,0,0,1-1v-1a1,1,0,0,0-2,0v1A1,1,0,0,0,16,10.5Z"/></g></svg>